<?xml version="1.0" encoding="UTF-8"?>
<svg xmlns="http://www.w3.org/2000/svg" role="img" aria-labelledby="title desc" viewBox="0 0 1080 1080" width="1080" height="1080">
  <title id="title">AtlasGrid</title>
  <desc id="desc">ELK.js no-server layout: JSON -&gt; square SVG -&gt; Obsidian embed</desc>
  <defs>
    <filter id="soft-shadow" x="-20%" y="-20%" width="140%" height="150%">
      <feDropShadow dx="0" dy="16" stdDeviation="16" flood-color="#263238" flood-opacity=".13"/>
    </filter>
    <marker id="arrow" viewBox="0 0 10 10" refX="8.4" refY="5" markerWidth="8" markerHeight="8" orient="auto-start-reverse">
      <path d="M 0 0 L 10 5 L 0 10 z" fill="#52616d"/>
    </marker>
    <linearGradient id="bg" x1="0" x2="1" y1="0" y2="1">
      <stop offset="0" stop-color="#fff8ec"/>
      <stop offset=".58" stop-color="#edf7f2"/>
      <stop offset="1" stop-color="#eef1fb"/>
    </linearGradient>
  </defs>
  <style>
    svg { font-family: Inter, ui-sans-serif, system-ui, -apple-system, BlinkMacSystemFont, "Segoe UI", sans-serif; }
    .panel { fill: url(#bg); }
    .grid { stroke: rgba(49, 55, 68, .08); stroke-width: 1; }
    .title { fill: #242a2f; font-size: 34px; font-weight: 850; letter-spacing: 0; }
    .subtitle { fill: #5f665f; font-size: 16px; font-weight: 560; letter-spacing: 0; }
    .metric { fill: rgba(255, 255, 255, .72); stroke: rgba(58, 67, 74, .14); }
    .metric-text { fill: #4f5b52; font-size: 13px; font-weight: 720; letter-spacing: 0; }
    .edge { fill: none; stroke: #52616d; stroke-width: 3.2; stroke-linecap: round; stroke-linejoin: round; opacity: .86; }
    .edge-label rect { fill: rgba(255, 255, 255, .88); stroke: rgba(82, 97, 109, .16); }
    .edge-label text { fill: #52616d; font-size: 12px; font-weight: 760; letter-spacing: 0; }
    .node rect, .node polygon { fill: var(--fill); stroke: var(--stroke); stroke-width: 2.3; filter: url(#soft-shadow); }
    .badge { fill: var(--badge); font-size: 11px; font-weight: 850; letter-spacing: .06em; text-transform: uppercase; }
    .node-label { fill: var(--text); font-size: 15.5px; font-weight: 760; letter-spacing: 0; }
  </style>
  <rect class="panel" x="18" y="18" width="1044" height="1044" rx="42"/>
  <path class="grid" d="M 70 170 H 1010 M 70 330 H 1010 M 70 490 H 1010 M 70 650 H 1010 M 70 810 H 1010 M 230 150 V 1010 M 390 150 V 1010 M 550 150 V 1010 M 710 150 V 1010 M 870 150 V 1010"/>
  <text class="title" x="70" y="70">AtlasGrid</text>
  <text class="subtitle" x="70" y="99">ELK.js no-server layout: JSON -&gt; square SVG -&gt; Obsidian embed</text>
  <g transform="translate(718 52)">
    <rect class="metric" x="0" y="0" width="292" height="38" rx="19"/>
    <text class="metric-text" x="146" y="25" text-anchor="middle">AtlasGrid - stress+overlap - aspect 1.13</text>
  </g>
  <g transform="translate(67.67 110.59) scale(0.9269)">
      <path class="edge" d="M 866.0 812.9 L 878.5 744.9" marker-end="url(#arrow)"/>
      <path class="edge" d="M 773.9 812.9 L 732.6 792.9" marker-end="url(#arrow)"/>
      <path class="edge" d="M 891.2 662.9 L 897.1 616.2" marker-end="url(#arrow)"/>
      <path class="edge" d="M 652.5 710.9 L 659.8 642.9" marker-end="url(#arrow)"/>
      <path class="edge" d="M 793.2 587.4 L 773.2 589.7" marker-end="url(#arrow)"/>
      <path class="edge" d="M 611.5 560.9 L 585.9 540.9" marker-end="url(#arrow)"/>
      <path class="edge" d="M 436.2 485.1 L 416.2 482.1" marker-end="url(#arrow)"/>
      <path class="edge" d="M 549.1 458.9 L 577.1 386.7" marker-end="url(#arrow)"/>
      <path class="edge" d="M 319.6 424.4 L 342.6 348.0" marker-end="url(#arrow)"/>
      <path class="edge" d="M 484.0 328.0 L 464.0 324.7" marker-end="url(#arrow)"/>
      <path class="edge" d="M 350.0 266.0 L 343.6 214.3" marker-end="url(#arrow)"/>
      <path class="edge" d="M 246.0 332.9 L 226.0 337.6" marker-end="url(#arrow)"/>
      <path class="edge" d="M 333.1 132.3 L 327.3 90.0" marker-end="url(#arrow)"/>
      <g class="node" style="--fill:#e9f6ef;--stroke:#3f7b67;--text:#1e4437;--badge:#2f6a58"><rect x="749.4" y="812.9" width="218.0" height="82.0" rx="34"/><text class="badge" x="858.4" y="834.9" text-anchor="middle">start</text><text class="node-label" x="858.4" y="866.9" text-anchor="middle">Idea in Obsidian note</text></g>
      <g class="node" style="--fill:#edf2ff;--stroke:#6177bd;--text:#27376d;--badge:#4e65ad"><rect x="777.1" y="662.9" width="218.0" height="82.0" rx="18"/><text class="badge" x="886.1" y="684.9" text-anchor="middle">data</text><text class="node-label" x="886.1" y="716.9" text-anchor="middle">Small graph JSON</text></g>
      <g class="node" style="--fill:#fff1d7;--stroke:#c38a2e;--text:#5a3a10;--badge:#a76e20"><rect x="539.1" y="710.9" width="218.0" height="82.0" rx="18"/><text class="badge" x="648.1" y="732.9" text-anchor="middle">guard</text><text class="node-label" x="648.1" y="764.9" text-anchor="middle">Square 1:1 target</text></g>
      <g class="node" style="--fill:#eaf7fb;--stroke:#408098;--text:#214e5d;--badge:#337186"><rect x="793.2" y="534.2" width="218.0" height="82.0" rx="18"/><text class="badge" x="902.2" y="556.2" text-anchor="middle">compute</text><text class="node-label" x="902.2" y="580.2" text-anchor="middle">ELK chooses node</text><text class="node-label" x="902.2" y="598.2" text-anchor="middle">positions</text></g>
      <g class="node" style="--fill:#fff8ec;--stroke:#c28a34;--text:#3b2d19;--badge:#a77224"><rect x="555.2" y="560.9" width="218.0" height="82.0" rx="18"/><text class="badge" x="664.2" y="582.9" text-anchor="middle">process</text><text class="node-label" x="664.2" y="606.9" text-anchor="middle">Try several layout</text><text class="node-label" x="664.2" y="624.9" text-anchor="middle">modes</text></g>
      <g class="node" style="--fill:#f9edf3;--stroke:#a45b7b;--text:#573146;--badge:#8e4666"><polygon points="533.2,458.9 630.2,499.9 533.2,540.9 436.2,499.9"/><text class="badge" x="533.2" y="480.9" text-anchor="middle">decision</text><text class="node-label" x="533.2" y="512.9" text-anchor="middle">Closest to square?</text></g>
      <g class="node" style="--fill:#fff8ec;--stroke:#c28a34;--text:#3b2d19;--badge:#a77224"><rect x="198.2" y="424.4" width="218.0" height="82.0" rx="18"/><text class="badge" x="307.2" y="446.4" text-anchor="middle">process</text><text class="node-label" x="307.2" y="478.4" text-anchor="middle">Short direct routes</text></g>
      <g class="node" style="--fill:#fff1d7;--stroke:#c38a2e;--text:#5a3a10;--badge:#a76e20"><rect x="484.0" y="304.7" width="218.0" height="82.0" rx="18"/><text class="badge" x="593.0" y="326.7" text-anchor="middle">guard</text><text class="node-label" x="593.0" y="350.7" text-anchor="middle">Scale content into one</text><text class="node-label" x="593.0" y="368.7" text-anchor="middle">canvas</text></g>
      <g class="node" style="--fill:#f1eefb;--stroke:#7565ad;--text:#40346b;--badge:#6553a0"><rect x="246.0" y="266.0" width="218.0" height="82.0" rx="18"/><text class="badge" x="355.0" y="288.0" text-anchor="middle">output</text><text class="node-label" x="355.0" y="320.0" text-anchor="middle">Static SVG artifact</text></g>
      <g class="node" style="--fill:#e9f8e5;--stroke:#5d9654;--text:#294d25;--badge:#4d8147"><rect x="229.6" y="132.3" width="218.0" height="82.0" rx="34"/><text class="badge" x="338.6" y="154.3" text-anchor="middle">success</text><text class="node-label" x="338.6" y="178.3" text-anchor="middle">Inline image inside</text><text class="node-label" x="338.6" y="196.3" text-anchor="middle">Obsidian</text></g>
      <g class="node" style="--fill:#f6f0e8;--stroke:#9a8063;--text:#453827;--badge:#83694d"><rect x="8.0" y="322.4" width="218.0" height="82.0" rx="18"/><text class="badge" x="117.0" y="344.4" text-anchor="middle">note</text><text class="node-label" x="117.0" y="368.4" text-anchor="middle">HTML link stays</text><text class="node-label" x="117.0" y="386.4" text-anchor="middle">optional</text></g>
      <g class="node" style="--fill:#eef1f4;--stroke:#63717d;--text:#2f3b45;--badge:#52616d"><rect x="212.8" y="8.0" width="218.0" height="82.0" rx="18"/><text class="badge" x="321.8" y="30.0" text-anchor="middle">future</text><text class="node-label" x="321.8" y="54.0" text-anchor="middle">Plugin only if this</text><text class="node-label" x="321.8" y="72.0" text-anchor="middle">becomes core</text></g>
  </g>
</svg>
